<?xml version="1.0" encoding="UTF-8" standalone="no"?>
<svg
   xmlns:dc="http://purl.org/dc/elements/1.1/"
   xmlns:cc="http://creativecommons.org/ns#"
   xmlns:rdf="http://www.w3.org/1999/02/22-rdf-syntax-ns#"
   xmlns:svg="http://www.w3.org/2000/svg"
   xmlns="http://www.w3.org/2000/svg"
   xmlns:sodipodi="http://sodipodi.sourceforge.net/DTD/sodipodi-0.dtd"
   xmlns:inkscape="http://www.inkscape.org/namespaces/inkscape"
   sodipodi:docname="loss_5_9.svg"
   inkscape:version="1.0 (4035a4fb49, 2020-05-01)"
   id="svg676"
   version="1.1"
   viewBox="0 0 223.79841 174.57697"
   height="174.57697mm"
   width="223.7984mm">
  <defs
     id="defs670">
    <clipPath
       clipPathUnits="userSpaceOnUse"
       id="clipPath66">
      <path
         d="M 0,-141.74391 H 194.26912 V 303.1388 H 0"
         id="path64" />
    </clipPath>
    <clipPath
       clipPathUnits="userSpaceOnUse"
       id="clipPath78">
      <path
         d="M -141.73601,0 V 161.39487 H 336.00513 V 0"
         id="path76" />
    </clipPath>
    <clipPath
       clipPathUnits="userSpaceOnUse"
       id="clipPath288">
      <path
         d="M 0,0 H 194.26912 V 161.39487 H 0 Z"
         id="path286" />
    </clipPath>
    <clipPath
       clipPathUnits="userSpaceOnUse"
       id="clipPath1114">
      <path
         d="M 0,-141.74391 H 194.26912 V 303.1388 H 0"
         id="path1112" />
    </clipPath>
    <clipPath
       clipPathUnits="userSpaceOnUse"
       id="clipPath1126">
      <path
         d="M -141.73601,0 V 161.39487 H 336.00513 V 0"
         id="path1124" />
    </clipPath>
    <clipPath
       clipPathUnits="userSpaceOnUse"
       id="clipPath1336">
      <path
         d="M 0,0 H 194.26912 V 161.39487 H 0 Z"
         id="path1334" />
    </clipPath>
  </defs>
  <sodipodi:namedview
     inkscape:window-maximized="0"
     inkscape:window-y="0"
     inkscape:window-x="2050"
     inkscape:window-height="1041"
     inkscape:window-width="1375"
     showgrid="false"
     inkscape:document-rotation="0"
     inkscape:current-layer="layer1"
     inkscape:document-units="mm"
     inkscape:cy="54.104139"
     inkscape:cx="248.70938"
     inkscape:zoom="0.35"
     inkscape:pageshadow="2"
     inkscape:pageopacity="0.0"
     borderopacity="1.0"
     bordercolor="#666666"
     pagecolor="#ffffff"
     id="base" />
  <metadata
     id="metadata673">
    <rdf:RDF>
      <cc:Work
         rdf:about="">
        <dc:format>image/svg+xml</dc:format>
        <dc:type
           rdf:resource="http://purl.org/dc/dcmitype/StillImage" />
        <dc:title></dc:title>
      </cc:Work>
    </rdf:RDF>
  </metadata>
  <g
     transform="translate(-40.028976,-133.85161)"
     id="layer1"
     inkscape:groupmode="layer"
     inkscape:label="Layer 1">
    <g
       id="g1078"
       transform="matrix(0.90778627,0,0,-0.90778627,78.633631,280.36366)">
      <g
         id="g1080">
        <g
           id="g1082" />
        <g
           id="g1084" />
        <g
           id="g1086">
          <g
             id="g1088" />
        </g>
        <g
           id="g1090" />
        <g
           id="g1092" />
        <g
           id="g1094" />
        <g
           id="g1096" />
        <g
           id="g1098"
           transform="translate(-45.533,-35.002)">
          <g
             id="g1100"
             transform="translate(45.533,35.002)">
            <g
               id="g1102">
              <g
                 id="g1104">
                <g
                   id="g1106">
                  <g
                     id="g1108">
                    <g
                       id="g1110"
                       clip-path="url(#clipPath1114)">
                      <g
                         id="g1116">
                        <path
                           d="m 48.56728,-2.12605 v 4.2521 m 48.56727,-4.2521 v 4.2521 m 48.56728,-4.2521 v 4.2521 m 48.56729,-4.2521 v 4.2521"
                           style="fill:none;stroke:#808080;stroke-width:0.19925;stroke-linecap:butt;stroke-linejoin:miter;stroke-miterlimit:10;stroke-dasharray:none;stroke-opacity:1"
                           id="path1118" />
                      </g>
                    </g>
                  </g>
                  <g
                     id="g1120">
                    <g
                       id="g1122"
                       clip-path="url(#clipPath1126)">
                      <g
                         id="g1128">
                        <path
                           d="m -2.12593,20.47162 h 4.25186 m -4.25186,31.45364 h 4.25186 m -4.25186,31.45366 h 4.25186 m -4.25186,31.45366 h 4.25186 m -4.25186,31.45364 h 4.25186"
                           style="fill:none;stroke:#808080;stroke-width:0.19925;stroke-linecap:butt;stroke-linejoin:miter;stroke-miterlimit:10;stroke-dasharray:none;stroke-opacity:1"
                           id="path1130" />
                      </g>
                    </g>
                  </g>
                  <path
                     d="M 0,0 H 192.2766"
                     style="fill:none;stroke:#000000;stroke-width:0.3985;stroke-linecap:butt;stroke-linejoin:miter;stroke-miterlimit:10;stroke-dasharray:none;stroke-opacity:1"
                     id="path1132" />
                  <g
                     id="g1134"
                     transform="translate(192.2766)">
                    <g
                       id="g1136">
                      <path
                         d="M 1.99252,0 -1.19551,1.59401 0,0 -1.19551,-1.59401"
                         style="fill:#000000;fill-opacity:1;fill-rule:nonzero;stroke:none"
                         id="path1138" />
                    </g>
                  </g>
                  <path
                     d="M 0,0 V 159.40234"
                     style="fill:none;stroke:#000000;stroke-width:0.3985;stroke-linecap:butt;stroke-linejoin:miter;stroke-miterlimit:10;stroke-dasharray:none;stroke-opacity:1"
                     id="path1140" />
                  <g
                     id="g1142"
                     transform="rotate(90,-79.70117,79.70117)">
                    <g
                       id="g1144">
                      <path
                         d="M 1.99252,0 -1.19551,1.59401 0,0 -1.19551,-1.59401"
                         style="fill:#000000;fill-opacity:1;fill-rule:nonzero;stroke:none"
                         id="path1146" />
                    </g>
                  </g>
                  <g
                     id="g1148">
                    <g
                       id="g1150"
                       transform="translate(39.787,-14.014)">
                      <g
                         id="g1152">
                        <g
                           id="g1154"
                           transform="translate(-256.676,-581.244)">
                          <text
                             transform="matrix(1,0,0,-1,256.676,581.244)"
                             style="font-variant:normal;font-weight:normal;font-size:11.9552px;font-family:CMR12;-inkscape-font-specification:CMR12;writing-mode:lr-tb;fill:#000000;fill-opacity:1;fill-rule:nonzero;stroke:none"
                             id="text1158"><tspan
                               x="0 5.8532658 11.706532"
                               y="0"
                               sodipodi:role="line"
                               id="tspan1156">200</tspan></text>
                          <g
                             id="g1160"
                             transform="translate(256.676,581.244)" />
                        </g>
                      </g>
                      <g
                         id="g1162"
                         transform="translate(-39.787,14.014)" />
                    </g>
                  </g>
                  <g
                     id="g1164">
                    <g
                       id="g1166"
                       transform="translate(88.353,-14.014)">
                      <g
                         id="g1168">
                        <g
                           id="g1170"
                           transform="translate(-305.242,-581.244)">
                          <text
                             transform="matrix(1,0,0,-1,305.242,581.244)"
                             style="font-variant:normal;font-weight:normal;font-size:11.9552px;font-family:CMR12;-inkscape-font-specification:CMR12;writing-mode:lr-tb;fill:#000000;fill-opacity:1;fill-rule:nonzero;stroke:none"
                             id="text1174"><tspan
                               x="0 5.8532658 11.706532"
                               y="0"
                               sodipodi:role="line"
                               id="tspan1172">400</tspan></text>
                          <g
                             id="g1176"
                             transform="translate(305.242,581.244)" />
                        </g>
                      </g>
                      <g
                         id="g1178"
                         transform="translate(-88.353,14.014)" />
                    </g>
                  </g>
                  <g
                     id="g1180">
                    <g
                       id="g1182"
                       transform="translate(136.92,-14.014)">
                      <g
                         id="g1184">
                        <g
                           id="g1186"
                           transform="translate(-353.809,-581.244)">
                          <text
                             transform="matrix(1,0,0,-1,353.809,581.244)"
                             style="font-variant:normal;font-weight:normal;font-size:11.9552px;font-family:CMR12;-inkscape-font-specification:CMR12;writing-mode:lr-tb;fill:#000000;fill-opacity:1;fill-rule:nonzero;stroke:none"
                             id="text1190"><tspan
                               x="0 5.8532658 11.706532"
                               y="0"
                               sodipodi:role="line"
                               id="tspan1188">600</tspan></text>
                          <g
                             id="g1192"
                             transform="translate(353.809,581.244)" />
                        </g>
                      </g>
                      <g
                         id="g1194"
                         transform="translate(-136.92,14.014)" />
                    </g>
                  </g>
                  <g
                     id="g1196">
                    <g
                       id="g1198"
                       transform="translate(185.487,-14.014)">
                      <g
                         id="g1200">
                        <g
                           id="g1202"
                           transform="translate(-402.376,-581.244)">
                          <text
                             transform="matrix(1,0,0,-1,402.376,581.244)"
                             style="font-variant:normal;font-weight:normal;font-size:11.9552px;font-family:CMR12;-inkscape-font-specification:CMR12;writing-mode:lr-tb;fill:#000000;fill-opacity:1;fill-rule:nonzero;stroke:none"
                             id="text1206"><tspan
                               x="0 5.8532658 11.706532"
                               y="0"
                               sodipodi:role="line"
                               id="tspan1204">800</tspan></text>
                          <g
                             id="g1208"
                             transform="translate(402.376,581.244)" />
                        </g>
                      </g>
                      <g
                         id="g1210"
                         transform="translate(-185.487,14.014)" />
                    </g>
                  </g>
                  <g
                     id="g1212">
                    <g
                       id="g1214"
                       transform="translate(-27.121,16.62)">
                      <g
                         id="g1216">
                        <g
                           id="g1218"
                           transform="translate(-189.768,-611.878)">
                          <text
                             transform="matrix(1,0,0,-1,189.768,611.878)"
                             style="font-variant:normal;font-weight:normal;font-size:11.9552px;font-family:CMR12;-inkscape-font-specification:CMR12;writing-mode:lr-tb;fill:#000000;fill-opacity:1;fill-rule:nonzero;stroke:none"
                             id="text1222"><tspan
                               x="0"
                               y="0"
                               id="tspan1220">0</tspan></text>
                          <text
                             transform="matrix(1,0,0,-1,195.621,611.878)"
                             style="font-variant:normal;font-weight:normal;font-size:11.9552px;font-family:CMMI12;-inkscape-font-specification:CMMI12;writing-mode:lr-tb;fill:#000000;fill-opacity:1;fill-rule:nonzero;stroke:none"
                             id="text1226"><tspan
                               x="0"
                               y="0"
                               id="tspan1224">.</tspan></text>
                          <text
                             transform="matrix(1,0,0,-1,198.873,611.878)"
                             style="font-variant:normal;font-weight:normal;font-size:11.9552px;font-family:CMR12;-inkscape-font-specification:CMR12;writing-mode:lr-tb;fill:#000000;fill-opacity:1;fill-rule:nonzero;stroke:none"
                             id="text1230"><tspan
                               x="0 5.8532658"
                               y="0"
                               sodipodi:role="line"
                               id="tspan1228">02</tspan></text>
                          <g
                             id="g1232"
                             transform="translate(189.768,611.878)" />
                        </g>
                      </g>
                      <g
                         id="g1234"
                         transform="translate(27.121,-16.62)" />
                    </g>
                  </g>
                  <g
                     id="g1236">
                    <g
                       id="g1238"
                       transform="translate(-32.974,48.073)">
                      <g
                         id="g1240">
                        <g
                           id="g1242"
                           transform="translate(-183.915,-643.331)">
                          <text
                             transform="matrix(1,0,0,-1,183.915,643.331)"
                             style="font-variant:normal;font-weight:normal;font-size:11.9552px;font-family:CMR12;-inkscape-font-specification:CMR12;writing-mode:lr-tb;fill:#000000;fill-opacity:1;fill-rule:nonzero;stroke:none"
                             id="text1246"><tspan
                               x="0"
                               y="0"
                               id="tspan1244">0</tspan></text>
                          <text
                             transform="matrix(1,0,0,-1,189.768,643.331)"
                             style="font-variant:normal;font-weight:normal;font-size:11.9552px;font-family:CMMI12;-inkscape-font-specification:CMMI12;writing-mode:lr-tb;fill:#000000;fill-opacity:1;fill-rule:nonzero;stroke:none"
                             id="text1250"><tspan
                               x="0"
                               y="0"
                               id="tspan1248">.</tspan></text>
                          <text
                             transform="matrix(1,0,0,-1,193.02,643.331)"
                             style="font-variant:normal;font-weight:normal;font-size:11.9552px;font-family:CMR12;-inkscape-font-specification:CMR12;writing-mode:lr-tb;fill:#000000;fill-opacity:1;fill-rule:nonzero;stroke:none"
                             id="text1254"><tspan
                               x="0 5.8532658 11.706532"
                               y="0"
                               sodipodi:role="line"
                               id="tspan1252">025</tspan></text>
                          <g
                             id="g1256"
                             transform="translate(183.915,643.331)" />
                        </g>
                      </g>
                      <g
                         id="g1258"
                         transform="translate(32.974,-48.073)" />
                    </g>
                  </g>
                  <g
                     id="g1260">
                    <g
                       id="g1262"
                       transform="translate(-27.121,79.526)">
                      <g
                         id="g1264">
                        <g
                           id="g1266"
                           transform="translate(-189.768,-674.784)">
                          <text
                             transform="matrix(1,0,0,-1,189.768,674.784)"
                             style="font-variant:normal;font-weight:normal;font-size:11.9552px;font-family:CMR12;-inkscape-font-specification:CMR12;writing-mode:lr-tb;fill:#000000;fill-opacity:1;fill-rule:nonzero;stroke:none"
                             id="text1270"><tspan
                               x="0"
                               y="0"
                               id="tspan1268">0</tspan></text>
                          <text
                             transform="matrix(1,0,0,-1,195.621,674.784)"
                             style="font-variant:normal;font-weight:normal;font-size:11.9552px;font-family:CMMI12;-inkscape-font-specification:CMMI12;writing-mode:lr-tb;fill:#000000;fill-opacity:1;fill-rule:nonzero;stroke:none"
                             id="text1274"><tspan
                               x="0"
                               y="0"
                               id="tspan1272">.</tspan></text>
                          <text
                             transform="matrix(1,0,0,-1,198.873,674.784)"
                             style="font-variant:normal;font-weight:normal;font-size:11.9552px;font-family:CMR12;-inkscape-font-specification:CMR12;writing-mode:lr-tb;fill:#000000;fill-opacity:1;fill-rule:nonzero;stroke:none"
                             id="text1278"><tspan
                               x="0 5.8532658"
                               y="0"
                               sodipodi:role="line"
                               id="tspan1276">03</tspan></text>
                          <g
                             id="g1280"
                             transform="translate(189.768,674.784)" />
                        </g>
                      </g>
                      <g
                         id="g1282"
                         transform="translate(27.121,-79.526)" />
                    </g>
                  </g>
                  <g
                     id="g1284">
                    <g
                       id="g1286"
                       transform="translate(-32.974,110.979)">
                      <g
                         id="g1288">
                        <g
                           id="g1290"
                           transform="translate(-183.915,-706.237)">
                          <text
                             transform="matrix(1,0,0,-1,183.915,706.237)"
                             style="font-variant:normal;font-weight:normal;font-size:11.9552px;font-family:CMR12;-inkscape-font-specification:CMR12;writing-mode:lr-tb;fill:#000000;fill-opacity:1;fill-rule:nonzero;stroke:none"
                             id="text1294"><tspan
                               x="0"
                               y="0"
                               id="tspan1292">0</tspan></text>
                          <text
                             transform="matrix(1,0,0,-1,189.768,706.237)"
                             style="font-variant:normal;font-weight:normal;font-size:11.9552px;font-family:CMMI12;-inkscape-font-specification:CMMI12;writing-mode:lr-tb;fill:#000000;fill-opacity:1;fill-rule:nonzero;stroke:none"
                             id="text1298"><tspan
                               x="0"
                               y="0"
                               id="tspan1296">.</tspan></text>
                          <text
                             transform="matrix(1,0,0,-1,193.02,706.237)"
                             style="font-variant:normal;font-weight:normal;font-size:11.9552px;font-family:CMR12;-inkscape-font-specification:CMR12;writing-mode:lr-tb;fill:#000000;fill-opacity:1;fill-rule:nonzero;stroke:none"
                             id="text1302"><tspan
                               x="0 5.8532658 11.706532"
                               y="0"
                               sodipodi:role="line"
                               id="tspan1300">035</tspan></text>
                          <g
                             id="g1304"
                             transform="translate(183.915,706.237)" />
                        </g>
                      </g>
                      <g
                         id="g1306"
                         transform="translate(32.974,-110.979)" />
                    </g>
                  </g>
                  <g
                     id="g1308">
                    <g
                       id="g1310"
                       transform="translate(-27.121,142.433)">
                      <g
                         id="g1312">
                        <g
                           id="g1314"
                           transform="translate(-189.768,-737.691)">
                          <text
                             transform="matrix(1,0,0,-1,189.768,737.691)"
                             style="font-variant:normal;font-weight:normal;font-size:11.9552px;font-family:CMR12;-inkscape-font-specification:CMR12;writing-mode:lr-tb;fill:#000000;fill-opacity:1;fill-rule:nonzero;stroke:none"
                             id="text1318"><tspan
                               x="0"
                               y="0"
                               id="tspan1316">0</tspan></text>
                          <text
                             transform="matrix(1,0,0,-1,195.621,737.691)"
                             style="font-variant:normal;font-weight:normal;font-size:11.9552px;font-family:CMMI12;-inkscape-font-specification:CMMI12;writing-mode:lr-tb;fill:#000000;fill-opacity:1;fill-rule:nonzero;stroke:none"
                             id="text1322"><tspan
                               x="0"
                               y="0"
                               id="tspan1320">.</tspan></text>
                          <text
                             transform="matrix(1,0,0,-1,198.873,737.691)"
                             style="font-variant:normal;font-weight:normal;font-size:11.9552px;font-family:CMR12;-inkscape-font-specification:CMR12;writing-mode:lr-tb;fill:#000000;fill-opacity:1;fill-rule:nonzero;stroke:none"
                             id="text1326"><tspan
                               x="0 5.8532658"
                               y="0"
                               sodipodi:role="line"
                               id="tspan1324">04</tspan></text>
                          <g
                             id="g1328"
                             transform="translate(189.768,737.691)" />
                        </g>
                      </g>
                      <g
                         id="g1330"
                         transform="translate(27.121,-142.433)" />
                    </g>
                  </g>
                  <g
                     id="g1332"
                     clip-path="url(#clipPath1336)">
                    <g
                       id="g1338">
                      <path
                         d="m 0.24283,20.97581 v 0.11849 l 0.24284,2.24338 0.24283,6.06266 V 15.70918 l 0.24284,7.68212 v 8.0548 L 1.21417,21.611 1.45702,161.39487 1.94269,17.76357 v -1.81405 l 0.24283,7.79761 V 21.38751 L 2.42836,6.6371 2.67119,26.16072 V 15.45195 l 0.24284,7.20255 v -5.02591 10.32029 -9.00795 l 0.7285,-0.11136 v 5.2269 L 4.61389,17.99078 V 26.97775 13.0901 l 0.24283,7.61537 v 6.98508 l 0.24284,-6.57937 v -8.35366 -0.07199 l 0.24283,4.82419 v -1.04388 l 0.72851,9.77624 v -9.46054 0.47359 l 0.24284,-1.9959 v 6.39301 l 0.24284,-3.73569 0.24283,-0.79492 0.24284,-2.9299 v -0.46758 2.32211 2.33224 0.09748 L 7.52792,29.90804 V 16.76506 l 0.24283,-2.10089 0.24285,4.66522 v 5.71547 -5.81522 L 8.25642,34.80159 V 23.27655 l 0.24285,0.42258 0.48567,0.92839 0.48567,-4.73119 0.48567,-0.86091 v -5.15679 l 0.24285,4.26738 v 3.91681 -16.28961 4.94417 l 0.24283,5.14891 0.24284,10.52765 0.24283,-12.76164 0.48567,9.27416 v -2.87478 2.49682 l 0.24284,-7.97381 V 30.33923 L 11.89897,15.1786 v 2.46799 l 0.24285,11.08147 V 15.98138 l 0.24282,-0.11659 v 5.49236 l 0.48568,-0.55944 0.24284,-5.27714 v 8.65774 l 0.24283,-13.09161 0.24284,9.6679 v -0.50057 l 0.24284,0.44321 0.24283,-8.51603 0.48568,12.32556 V 12.92513 l 0.24284,15.94239 v 0.68244 l 0.24283,-9.00908 v 2.38809 -1.08401 l 0.24284,-0.61004 0.24283,6.84821 0.24284,-10.2592 0.48567,5.03754 0.48567,-4.21938 v -6.33639 8.23855 l 0.24284,3.29474 v -11.47894 4.69822 1.11324 l 0.24284,1.36709 V 13.53142 25.48131 15.8828 5.6307 l 0.48567,12.68517 0.24283,-6.54674 0.24284,-0.24185 v 14.09874 0.37271 -12.93676 l 0.48568,-0.32845 0.24284,8.10019 0.24283,-13.95026 V 23.9556 15.05751 l 0.24284,-0.35509 V 9.10655 28.3516 19.58398 16.60007 30.99129 l 0.24283,-13.86478 v 2.76569 l 0.24284,2.31385 v -4.57298 l 0.24283,1.40499 0.24284,-0.04952 V 9.88647 14.9855 l 0.24283,13.41408 v -11.79313 1.92689 l 0.24285,-2.55983 v -0.76678 3.5831 -4.63372 l 0.7285,-5.8602 v 9.70687 l 0.24284,2.50247 v -5.96106 l 0.24283,-4.70384 0.24284,-3.17325 0.72852,10.81975 0.24283,6.24414 0.24284,-1.69892 v 0.26584 l 0.48567,2.44622 0.24283,-0.08849 v 2.34911 0.78779 l 0.24284,-4.09453 0.48568,-10.11447 0.24282,1.87892 v -0.34384 -9.5209 l 0.72852,2.97978 0.24283,2.2385 v -0.67231 l 0.24284,17.24689 v -8.11745 l 0.24283,3.08365 v -14.25099 3.8152 l 0.24284,8.00119 0.24283,15.83069 0.24284,-19.35976 v 5.20589 9.5734 l 0.48568,7.78935 V 19.1614 21.28516 l 0.24284,-2.83056 v -4.28088 l 0.48568,4.43688 v -4.60898 l 0.24282,8.34918 0.24285,-7.66563 v 4.71359 l 0.24283,4.62095 0.24284,-7.31691 v 0.84029 5.23701 l 0.24283,-4.67681 0.24284,0.88901 0.48567,2.65132 v 5.69072 l 1.21417,-2.62658 0.24285,-9.78074 0.97134,-5.70909 v 16.09425 -14.06874 -0.4222 l 0.24285,-0.99063 v 10.74175 l 0.24282,-0.98987 v 19.2424 -26.07037 l 0.24285,-0.54668 0.48567,12.89813 0.24283,-6.45151 v -1.7458 L 34.7256,23.3583 V 13.35445 l 0.7285,10.56065 v -5.9037 l 0.24285,-2.27635 v -3.03978 16.01516 l 0.48567,-11.05748 v -6.80659 l 0.72851,6.51038 v -3.72069 9.8231 -3.96365 l 0.24283,-10.42906 0.24284,8.73988 v 9.24681 l 0.24283,-9.873 0.24285,14.46733 0.24282,-14.34697 0.24285,7.1718 v 3.62508 l 0.24283,-11.68364 0.24284,9.28018 0.24283,11.21007 0.24285,-11.26595 0.97134,-9.08333 v 8.24568 l 0.24283,-5.5355 v -5.83731 11.96449 -0.129 l 0.24284,-7.91759 0.24283,-6.72671 0.24284,-4.96744 V 9.53326 12.76952 5.25313 22.03319 L 41.52502,20.08528 41.76785,9.7301 v 7.39191 l 0.72852,3.04539 v 3.00454 l 0.7285,-5.28989 0.24284,-2.07275 0.24283,-5.01767 0.24284,2.37947 0.7285,-1.3161 V 9.25354 l 0.72852,3.40611 v 11.40132 l 0.48567,-7.22729 v 1.05887 -3.32175 l 0.24285,4.46837 0.24282,9.07133 1.45702,-13.21572 0.24284,-6.04318 v 4.29662 12.25321 L 48.56728,9.41554 v 6.99292 -7.14705 l 0.24282,8.07994 v 3.00829 -1.74918 4.13016 l 0.24285,-6.42338 V 14.2326 l 0.24283,-2.89617 v 13.15611 l 0.24284,0.18149 0.48567,-4.3274 0.24283,-1.11474 0.24284,-3.10614 v -2.40384 -0.37045 -1.14701 l 0.48568,1.52384 v 16.37999 l 0.48567,-7.00985 0.24284,-1.69366 v 3.59772 l 0.24283,-11.56592 0.48567,-4.32514 v 4.66559 l 0.24285,-0.75328 0.24282,14.73618 0.24285,-8.43166 v 1.50283 -3.39711 l 0.48567,2.56507 0.24283,-2.6622 0.24284,11.71779 0.24283,-1.64007 V 14.31995 l 0.24284,18.60049 V 14.16736 l 0.24283,4.75856 0.24285,1.36973 v -1.31347 -3.1234 l 0.72851,-3.05589 0.48567,8.20067 0.24283,-5.18302 v 2.26999 l 0.24285,-4.40987 0.24282,-2.23698 0.48568,1.55532 v 17.82919 l 0.24284,-17.07291 0.24283,23.08008 V 12.91687 l 0.24284,12.5168 v -3.10388 0.25871 -4.44548 l 0.24283,-6.76686 V 22.45052 L 58.7664,10.4984 v 8.77061 l 0.24283,3.06116 v -7.32178 -3.21527 1.42072 L 59.4949,9.5565 v 9.70989 l 0.72852,-1.90892 0.48567,-1.18071 v 9.61274 l 0.24284,-1.41882 v -6.99595 0.01574 l 0.48567,-4.2655 v 2.95353 l 0.24284,4.24265 V 17.58734 L 62.1661,15.95403 V 26.3092 l 0.24285,-4.8482 0.24283,-0.02248 v 8.64687 L 62.89462,13.8404 v -0.49647 8.37805 L 63.86597,7.48187 64.1088,17.7437 64.59448,11.22507 v 4.9423 3.96779 7.62926 l 0.24283,-9.83662 0.48567,2.0544 0.24285,9.92246 0.24282,-7.63974 0.48568,11.15009 L 66.53717,7.474 v 7.98283 -0.84364 -1.27823 l 0.24283,3.27074 0.24284,-5.85608 0.7285,1.67531 v 1.07387 l 0.24285,-3.6202 0.7285,11.68439 v 5.21266 -11.24347 2.61383 l 0.24284,-0.15936 0.24284,-2.59131 0.24283,0.42896 0.24285,12.36268 v -9.08331 l 0.24282,1.48443 v 1.67006 -3.76043 l 0.24285,-0.26283 0.24283,-1.71133 0.24284,-2.87967 v 5.70011 -6.37164 l 0.97134,-2.42035 0.24283,18.82769 0.24284,-19.33425 v 22.2938 L 72.60808,15.54382 V 8.33603 18.1104 17.98665 7.67723 L 72.8509,7.05443 V 31.09439 13.52354 11.59328 l 0.24285,7.13017 0.72852,5.96594 0.24283,-10.15832 v 4.97305 l 0.24284,-5.38138 v -1.53621 l 0.24283,-0.23622 0.97134,5.34126 v -4.68695 1.62432 l 0.24284,-5.16768 v 9.48304 4.00866 L 76.25063,11.4568 v 16.6537 l 0.24282,-11.17971 v 1.4237 l 0.24285,-4.98392 0.48567,11.91875 0.48567,-12.84189 v 0.40046 l 0.24285,15.08599 0.24282,-11.86924 0.48568,11.36456 0.24284,-20.30653 v 0.0045 l 0.24283,11.71965 V 18.7482 l 0.24284,-4.81032 v 20.75047 -22.0092 l 0.24283,8.14743 v -0.55004 l 0.24284,-2.56173 V 13.07397 L 80.136,18.47523 V 9.3844 l 0.24285,7.43913 0.24282,1.19051 v -3.48148 l 0.24285,4.16765 v 3.11214 -4.11179 l 0.24283,6.25804 0.24284,-10.53067 0.24283,-0.28532 v 4.86091 4.67197 l 0.24284,-12.79164 0.24283,5.33975 0.24284,2.9693 0.24285,-3.66484 v 8.99109 l 0.24282,-7.08479 v 3.88078 -8.29628 l 0.72852,1.27334 v 2.37986 l 0.7285,11.99299 V 15.35858 l 0.24284,3.36152 0.24284,-5.615 0.24284,1.44882 0.24283,2.7192 0.48567,8.98848 V 14.39345 l 0.24284,5.36676 0.24283,-6.36977 0.72851,-3.02365 0.24285,3.05252 v 8.74249 -9.23407 l 0.24283,-0.41207 v 4.88232 l 0.24284,1.54108 v 5.39712 l 0.24283,-12.40207 v -1.27974 6.25429 -1.14886 l 0.48567,-11.26708 0.24284,6.60411 v 17.1059 l 0.7285,-14.73618 v 5.34352 l 0.24285,-1.40196 V 10.3139 l 0.48567,2.73346 0.97134,3.79155 0.48568,-3.7653 v 16.25062 -5.10542 l 0.24284,1.64607 0.48567,-3.23324 V 20.3279 11.1767 l 0.24283,11.69265 V 14.21346 21.4179 29.54958 7.00343 l 0.24284,10.825 V 31.30962 13.58241 l 0.24283,0.80619 v 4.07162 l 0.24285,3.05403 0.24282,-3.69256 0.24285,4.51522 v -7.06268 l 0.24283,6.80585 0.48567,-6.48564 0.24284,10.98474 V 13.85089 l 0.24283,1.90253 0.24284,-3.98467 0.24284,5.09117 0.24284,-7.45864 v 5.32214 l 0.24282,-1.43459 0.24285,10.53104 0.48567,-9.26631 V 28.9729 15.85841 l 0.24284,10.06684 v -2.99591 l 0.24283,-7.2123 0.24285,-2.68581 v 11.0031 l 0.24282,-14.96713 0.24285,4.50735 v 9.17368 l 0.24283,-7.9532 v -0.10161 l 0.24284,-1.49307 v 2.82791 0.80879 l 0.48567,-4.46724 0.24283,2.96666 0.24284,8.40578 0.24283,4.19951 V 16.35898 19.10965 L 99.80576,6.07954 v 9.65026 8.00195 l 0.24282,-8.07544 0.48568,4.18488 0.72851,-4.86806 0.72852,-0.88713 0.24283,7.88383 V 20.1269 21.37589 8.08406 26.7254 l 0.48567,-11.47892 v -0.37459 l 0.24284,-5.02292 v 2.43423 11.80588 l 0.48567,-0.91789 V 19.60048 8.79984 l 0.24283,16.54272 0.48567,-8.14067 0.24285,-5.52499 0.24283,1.39297 0.72851,0.76265 0.48567,24.42468 0.24284,-16.81868 0.24284,-3.76683 0.24284,7.39379 0.48567,-4.74845 0.24283,0.60779 V 9.76498 16.06013 l 0.48567,-7.33863 0.48567,12.4493 v 4.32325 -1.3521 l 0.24285,-2.79755 v 3.00378 l 0.24283,-0.58494 v 5.61875 l 0.48567,-12.36084 V 6.3045 9.516 l 0.24284,5.88196 V 27.41083 L 110.00488,11.5794 V 8.3979 l 0.24285,5.52198 0.24282,9.95961 V 11.4313 5.45898 l 0.24285,10.05634 0.24283,5.61198 0.24284,-7.14405 v -1.6198 l 0.48567,11.61688 V 9.29478 20.57123 l 0.24283,-1.97676 V 27.004 l 0.24284,-11.04248 0.48568,-1.8283 0.24282,0.99366 v 13.34657 l 0.72852,-18.12616 v 2.38736 l 0.24283,-1.52683 v 4.41137 l 0.24284,2.67231 v -7.48263 l 0.24283,4.29475 0.48569,8.1482 v -5.16167 9.81149 -2.37008 l 0.48567,-7.61351 V 14.5543 l 0.24283,-4.38136 v 15.00801 l 0.24284,-5.04991 0.24283,-7.36039 0.72851,5.93592 0.24283,-6.21414 v 4.08139 -1.62469 l 0.97135,4.13652 v -0.38281 l 0.24284,0.0019 0.24283,-4.52347 0.48567,2.47096 0.97136,8.10731 0.48567,-7.94758 v -4.68321 l 0.24283,0.94039 v -2.65882 l 0.72852,12.84302 V 34.62502 22.61253 l 0.24283,-10.6615 0.24284,2.38734 v -0.87553 0.7383 l 0.24283,11.99298 v 6.68287 l 0.48567,-16.84044 v 0.22123 l 0.48567,5.50512 V 11.08413 l 0.48567,-4.03004 0.24285,20.52252 0.24284,-3.32627 0.24283,-10.14855 v 7.14103 l 0.72852,-6.55761 v 8.05258 l 0.24282,-7.62775 0.48568,9.88797 0.24284,-5.56847 0.24283,-6.0878 0.72851,-2.50958 v 15.76392 l 0.24283,-11.46205 0.48567,5.38101 v -4.74059 l 0.72852,-1.10911 0.24285,8.72561 v -7.60787 4.54972 -7.18979 l 0.24282,-1.99252 0.24284,-1.05625 v 6.447 l 0.24284,-0.35996 v -3.48747 l 0.24284,5.00606 v -6.56963 2.33786 l 0.24283,0.16648 0.24284,0.26922 v 3.92392 l 0.24283,10.16509 V 17.51426 11.46845 l 0.48567,10.30306 0.24284,6.67499 v -15.7493 6.46837 -3.76831 -2.99854 l 0.24283,8.23143 v -10.48567 2.54034 l 0.72852,0.40532 0.24283,2.75182 V 6.07321 l 0.24284,3.90554 0.24283,-4.72032 v 3.41472 l 0.72851,6.62773 v 6.52913 -11.65067 l 0.24285,6.44814 V 11.6788 l 0.24282,0.55868 0.24285,5.62323 0.24283,-2.38472 v 4.51785 l 0.24284,-4.21713 0.24283,7.54564 V 30.41726 11.19248 7.64802 l 0.48567,2.56171 V 7.14594 l 0.48567,9.30156 v 3.30188 l 0.24285,-5.65399 0.24282,3.47211 v 3.53809 l 0.24285,0.61981 V 5.49464 l 0.24283,10.9675 0.24284,-7.4624 v 3.97267 l 0.24283,4.16839 0.72851,7.09119 0.24285,-6.69449 v -4.58759 l 0.48567,10.57229 v -0.73793 -2.2085 -5.35512 l 0.24283,5.15077 0.24284,10.8295 0.24283,-18.36087 v 1.95389 4.73009 l 0.24284,10.44592 0.24284,-13.36195 v -5.97533 5.55798 0.98502 l 0.24284,-1.41658 0.7285,-5.02068 v 4.77921 l 0.24284,4.98542 v -8.49278 l 0.24283,18.71785 V 8.29294 l 0.24284,-1.90403 0.48567,13.22511 0.48568,-6.3439 V 25.1855 23.38008 l 0.24284,-9.16768 0.7285,-1.26476 0.24284,-1.68579 V 8.67166 l 0.48568,6.42825 V 8.09309 l 0.24282,9.71739 0.24285,-4.99219 0.24283,3.45297 0.24284,3.85082 v -6.64724 3.0514 7.67837 l 0.24283,3.34836 v -8.43315 l 0.24284,-5.71246 v 2.54632 l 0.24283,4.67722 0.24284,-4.92168 v 3.10952 l 0.24283,-3.67383 0.24285,13.16134 0.24284,-5.49835 v -0.73642 l 0.24283,-5.57336 0.24284,1.26773 v -3.86994 l 0.24283,-8.54374 v 4.07541 3.88154 1.72481 l 0.48567,3.77917 v -4.29925 l 0.24285,-1.48744 v 2.59356 l 0.24282,3.46123 v -4.46423 l 0.48568,9.79875 0.24284,-13.02563 0.48567,13.66719 V 11.85654 22.0456 l 0.48567,-2.94902 v -0.6738 l 0.24283,-5.513 0.24285,3.39786 0.24284,-3.15152 0.24282,1.31948 v -1.13724 l 0.24285,-2.7143 0.7285,-0.05214 v 13.02526 -8.72901 l 0.24285,1.14513 0.24282,-3.39224 0.48568,8.09121 v 0.1406 8.49127 l 0.24284,-18.8502 v 5.67309 l 0.24283,-2.08587 v 2.9284 1.72856 l 0.24284,-1.2516 v 1.43532 -10.17446 1.47585 l 0.24283,6.01506 v 6.2329 0.32959 l 0.24284,7.86171 V 16.70022 l 0.24283,8.98586 V 15.6016 l 0.48567,-5.62623 0.24285,0.22424 v 1.49869 6.86096 l 0.24284,-14.056 v 12.53143 l 0.7285,-3.74357 v 9.76126 l 0.48567,-1.79868 0.24285,-12.58616 0.48567,9.48527 0.24283,-7.07506 0.24284,8.85234 v 7.16993 l 0.24283,-18.81908 0.97134,13.29297 0.48567,5.58236 V 13.7347 17.85171 13.30387 l 0.24285,9.43315 0.24284,-8.80848 v 10.01173 l 0.24283,0.40683 0.48567,-13.56444 0.24284,4.18489 0.24283,0.09261 0.48567,5.91307 0.24285,-8.90222 0.24283,9.88275 0.24284,-9.1602 0.24283,1.31534 0.48567,6.65397 V 15.02867 3.23852 l 0.24285,6.57336 0.7285,20.61402 0.24284,-18.36913 v 2.73981 l 0.24284,-3.83394 v -1.39746 2.22461 l 0.24283,15.68033 v -5.48751 l 0.48567,-8.93521 0.24285,11.23072 v 1.51217 l 0.24283,-7.41401 0.24284,0.71542 v -3.59845 l 0.24283,-0.0071 v -2.28423 l 0.24284,4.04466 0.24283,-4.0349 v 10.35667 l 0.24284,-4.93706 V 14.779 12.39351 l 0.24283,-0.54406 0.24285,6.15716 v 6.7496 l 0.24282,-3.83206 v -0.80314 l 0.24285,2.19085 v 1.46797 L 168.77129,8.6717 v 8.63975 l 0.24284,0.64081 v 2.22685 l 0.72852,3.75107 0.24282,-4.85082 v 0.33634 -9.35817 l 0.48568,4.49498 v -2.52721 4.66747 l 0.24284,-3.44473 0.24283,-5.01655 V 7.28698 7.75829 l 0.48567,17.94394 V 10.24726 l 0.48567,8.46878 v 2.91302 l 0.48567,-4.83844 0.24285,2.48184 v -5.1264 3.90292 -11.17933 l 0.24282,5.81221 v -0.33183 l 0.48568,9.72075 0.24284,5.29025 0.24283,-16.22962 0.24285,2.34198 0.24284,-3.52611 0.48567,5.33452 0.97134,-5.47699 0.24283,21.25554 0.24284,-7.01318 0.24283,-8.11331 0.72852,4.96142 v -0.17885 l 0.24283,-3.67721 v 6.77548 -2.03903 l 0.48567,-12.21045 v 9.01808 l 0.24284,0.37908 v 0.12298 l 0.24283,-3.01013 0.24284,-8.49167 v 11.31132 l 0.24285,-10.67651 v 0.33671 9.47067 -9.18122 l 0.24283,11.97426 0.72851,-11.08372 0.24283,9.07133 0.24284,-8.16693 v 6.0278 l 0.24283,-7.36116 0.24285,10.16585 0.48567,-8.04396 0.24283,3.83542 v 3.77846 4.59957 -18.48724 l 0.24284,10.97987 0.7285,4.6446 v -2.29288 9.53665 l 0.48567,-11.93674 0.24285,-2.20849 0.48567,10.90263 0.24284,16.93004 0.24283,-18.1839 0.24284,-11.66904 v 8.44515 l 0.48568,13.85389 v -16.0695 l 0.24282,4.29962 v -6.47325 l 0.48568,-8.38403 v 10.0571 l 0.24284,4.44548 V 10.96379 l 0.24283,-1.00262 0.24284,3.94342 0.24283,-6.3499 0.24284,6.54899 0.24283,12.16398 0.24285,-4.34912 v -9.95398 l 0.24282,1.28386 v 7.62999 l 0.48569,5.62247 0.24283,-11.43992 v 8.2558 l 0.24284,-6.82609 0.48568,6.27751 v 8.12796 l 0.97134,-18.8232 0.48567,6.55573 V 17.89038 L 190.8694,6.70954 v 21.27691 l 0.97134,-16.95291 0.24285,12.51682"
                         style="fill:none;stroke:#0000ff;stroke-width:0.3985;stroke-linecap:butt;stroke-linejoin:miter;stroke-miterlimit:10;stroke-dasharray:none;stroke-opacity:1"
                         id="path1340" />
                    </g>
                    <g
                       id="g1342">
                      <path
                         d="M 0.24283,27.29271 V 22.2413 l 0.24284,-3.95205 0.24283,5.2149 v -6.32402 l 0.24284,3.23738 v 16.27612 l 0.24283,-14.25586 0.24285,9.45565 0.48567,-16.5577 v 3.4151 l 0.24283,1.02477 v -6.76422 l 0.24284,12.49055 0.24283,2.85042 v -6.9337 l 0.24284,15.4576 v -11.15648 -6.32251 2.69557 l 0.7285,1.45033 v -7.39152 l 0.97136,9.09757 v -7.93896 -1.41508 l 0.24283,4.91606 V 19.80708 L 5.09956,12.62666 V 12.31244 18.1344 L 5.34239,15.55208 V 26.50531 L 6.0709,24.87048 v -10.21156 2.66895 l 0.24284,-0.93439 v 8.91946 L 6.55658,33.83647 6.79941,12.5719 7.04225,19.53224 V 31.36588 25.8975 25.5593 32.448 l 0.48567,-8.00946 v -5.06229 l 0.24283,-1.48408 0.24285,2.65695 v 1.07312 4.02179 l 0.24282,4.76683 v -2.71581 l 0.24285,-5.72146 0.48567,1.40533 0.48567,7.15079 0.48567,-17.03766 v 11.1561 l 0.24285,-4.22089 v -3.43123 3.30561 -6.59249 l 0.24283,-5.07617 0.24284,20.58363 0.24283,-15.68443 0.48567,1.40459 v 6.03306 -0.87553 l 0.24284,-1.67307 v 0.15262 l 0.24283,0.58904 V 13.60191 L 12.14182,34.1668 V 14.8269 l 0.24282,18.67397 V 15.84642 l 0.48568,6.84332 0.24284,-5.24977 v -5.62135 l 0.24283,-1.41809 0.24284,5.30077 v -1.05813 l 0.24284,3.60146 0.24283,5.8782 0.48568,-6.82197 V 12.7009 l 0.24284,13.08224 v -9.8295 l 0.24283,8.83362 v 10.1077 -7.33827 l 0.24284,-4.82045 0.24283,-2.58794 0.24284,1.55568 0.48567,3.45711 0.48567,-5.96294 v -8.37279 8.64614 l 0.24284,4.56659 v -2.63482 -1.99852 -2.50733 l 0.24284,10.1107 v -6.11966 1.35133 -0.39708 -11.5209 l 0.48567,5.24901 0.24283,0.29022 0.24284,-2.10201 v 7.12081 0.97226 5.97567 l 0.48568,-15.43284 0.24284,9.22244 0.24283,-3.49422 v -4.09828 -0.49982 l 0.24284,6.93108 v -9.20932 12.19248 -12.62555 15.33122 -7.8692 l 0.24283,1.79004 v -7.42714 l 0.24284,10.27044 v -2.0589 l 0.24283,-6.50811 0.24284,-4.78746 V 24.04596 10.59702 L 20.64108,22.71 V 9.32928 15.57982 l 0.24285,-1.52834 v 2.34648 -0.76266 -1.08473 l 0.7285,3.12488 v 11.5408 L 21.85527,19.13777 V 11.801 l 0.24283,1.08776 0.24284,1.77166 0.72852,8.6645 0.24283,-3.29437 0.24284,-0.51932 v 5.68924 l 0.48567,0.03823 0.24283,-1.82941 v 7.84858 -16.66081 l 0.24284,-1.91417 0.48568,0.69592 0.24282,10.09121 V 11.18944 9.4714 l 0.72852,7.28504 0.24283,-2.42598 V 11.4343 l 0.24284,4.77133 V 6.14365 l 0.24283,25.63017 v -19.83595 1.16198 l 0.24284,6.498 0.24283,8.38255 0.24284,-9.22732 v -1.90593 8.37319 l 0.48568,-8.38554 v -5.15041 20.21766 l 0.24284,-1.08886 V 16.00464 l 0.48568,0.51631 v 0.43533 l 0.24282,3.65509 0.24285,-5.74473 V 12.5483 l 0.24283,0.93476 0.24284,7.90259 v -0.39145 9.19919 l 0.24283,-7.82423 0.24284,3.32661 0.48567,-2.44173 V 9.97533 l 1.21417,18.0628 0.24285,-9.28432 0.97134,-3.6772 v -0.77728 0.57033 7.2059 l 0.24285,-4.49948 V 8.38701 l 0.24282,4.07541 v 8.4369 -2.79904 l 0.24285,9.30679 0.48567,-13.87941 0.24283,1.318 v -3.77057 l 0.24284,4.91606 v 1.83577 l 0.7285,-5.22914 v 10.47067 l 0.24285,-11.0991 v -0.012 25.66243 L 36.18262,11.4148 v 17.45498 l 0.72851,-11.14073 v 4.89922 1.66816 -13.99713 l 0.24283,9.6214 0.24284,1.35097 v 0.05812 l 0.24283,2.92128 0.24285,-12.85352 0.24282,13.7313 0.24285,-3.87632 V 9.44177 l 0.24283,12.85877 0.24284,1.72931 0.24283,-1.44022 0.24285,1.23248 0.97134,-13.11824 V 8.9727 l 0.24283,2.23361 v 2.62996 -3.5666 3.76721 l 0.24284,-5.57899 0.24283,6.91906 0.24284,8.63491 v -7.81524 -3.74394 4.9348 -2.80206 l 0.24284,-0.961 0.24283,-1.70343 v 4.25426 l 0.72852,0.39221 v 3.99514 l 0.7285,4.43876 0.24284,1.34122 0.24283,3.48596 0.24284,-15.041 0.7285,0.74577 v 1.71017 l 0.72852,-0.24633 v -2.72257 l 0.48567,11.45194 v -10.82726 6.01282 l 0.24285,5.83319 0.24282,-11.60939 1.45702,-2.42711 0.24284,-3.60445 v 3.99852 0.04575 l 0.48568,4.92468 v 1.32698 -8.98059 l 0.24282,8.5385 v -6.45299 5.5996 -5.12603 l 0.24285,4.99967 v 10.33194 l 0.24283,-1.69705 v -6.6825 l 0.24284,0.18672 0.48567,-8.99107 0.24283,5.06155 0.24284,-0.20549 v 1.66782 -4.65509 5.03455 l 0.48568,0.46044 v 8.11818 l 0.48567,-10.41516 0.24284,-8.51903 v 8.39116 l 0.24283,0.65129 0.48567,3.24263 v -1.85227 l 0.24285,2.05775 0.24282,-5.37013 0.24285,-2.18262 v 7.81523 -2.5426 l 0.48567,4.16016 0.24283,-1.75106 0.24284,8.83211 0.24283,-11.96973 v -0.70118 l 0.24284,10.71139 V 13.99748 l 0.24283,4.58687 0.24285,8.1553 V 30.5031 14.31772 l 0.72851,3.43048 0.48567,1.7454 0.24283,-0.82751 v 5.92468 l 0.24285,-14.1145 0.24282,15.45911 0.48568,-8.56403 v -6.6401 l 0.24284,6.44513 0.24283,-3.0754 v 6.32065 L 58.28073,8.22092 V 20.9162 18.00954 25.51468 L 58.52356,16.155 v 7.9232 L 58.7664,12.64429 V 26.34444 L 59.00923,10.36642 V 28.20012 21.9222 11.42418 L 59.4949,6.97043 v 15.0444 l 0.72852,-15.78868 0.48567,3.92017 v 8.49989 l 0.24284,0.02025 V 30.63396 13.10397 L 61.4376,30.61746 V 19.70734 l 0.24284,5.04879 v -6.97906 l 0.48566,6.10017 v 1.89952 l 0.24285,-14.63681 0.24283,9.49428 v 14.8243 l 0.24284,-24.94626 v 7.80699 2.25124 l 0.97135,-13.6162 0.24283,5.06418 0.48568,-0.34271 v 16.4846 -16.44899 4.99257 l 0.24283,-2.15865 0.48567,0.16387 0.24285,4.16165 0.24282,0.70003 0.48568,-15.81041 0.24284,5.8752 v 0.71952 4.40161 -0.03937 l 0.24283,-2.23547 0.24284,1.32883 0.7285,1.14551 v 4.62358 l 0.24285,-2.88641 0.7285,-4.28876 v 6.16055 -4.40687 3.77844 l 0.24284,-5.82196 0.24284,14.70918 0.24283,-9.67575 0.24285,0.06448 v 5.79721 l 0.24282,-3.27787 v -7.52202 5.05517 l 0.24285,8.46953 0.24283,-14.4212 0.24284,21.32339 V 12.63377 25.29118 l 0.97134,-9.38365 0.24283,-13.09949 0.24284,22.51091 v 8.21492 L 72.60808,4.6412 v 25.74566 -17.404 7.97121 -7.30677 l 0.24282,13.80138 v -11.9611 8.51076 -6.33527 l 0.24285,-1.94452 0.72852,7.19017 0.24283,-4.23738 v 1.78179 l 0.24284,-1.13274 V 18.7527 l 0.24283,9.14633 0.97134,-14.12726 v 1.54407 -4.57147 l 0.24284,17.43249 V 16.32373 10.56401 l 0.48568,5.13203 v 6.41927 l 0.24282,-2.61906 v 7.1999 l 0.24285,-2.86728 0.48567,-1.3401 0.48567,-9.62215 v -2.44809 l 0.24285,18.61849 0.24282,-4.81597 0.48568,-3.61944 0.24284,-12.54717 v 6.83133 l 0.24283,-8.29666 v 1.46195 l 0.24284,6.15641 v 1.04126 0.4432 l 0.24283,-3.46949 V 6.3345 l 0.24284,14.69532 v 1.8894 L 80.136,29.2305 V 19.11078 l 0.24285,-10.09346 0.24282,0.38321 v 1.04651 l 0.24285,3.4586 v 3.55759 -1.49797 l 0.24283,-1.87102 0.24284,3.6322 0.24283,-7.14854 v 11.31768 0.37908 l 0.24284,7.78674 0.24283,-10.24083 0.24284,-6.9577 0.24285,-10.23781 v 9.58876 l 0.24282,4.99031 v 1.65206 -5.32663 L 83.53572,9.1898 v 1.27636 l 0.7285,3.57295 v 6.21341 l 0.24284,-3.71096 0.24284,4.92808 0.24284,-1.73681 0.24283,-3.70532 0.48567,14.42384 V 16.9949 l 0.24284,9.82462 0.24283,-17.46062 0.72851,-1.76192 0.24285,1.84328 v 9.4718 2.67305 l 0.24283,-9.87484 v 10.12645 l 0.24284,-5.59435 v -0.83391 l 0.24283,-6.46649 v 7.76122 -7.67762 2.89316 l 0.48567,-1.51069 0.24284,13.22921 V 21.9747 L 89.36378,3.7788 V 19.38562 L 89.60663,4.3911 v 5.81784 l 0.48567,11.47404 0.97134,-4.55685 0.48568,1.00413 v 6.42902 -5.54224 l 0.24284,8.60489 0.48567,-5.72671 V 9.95883 28.74641 l 0.24283,-8.78859 v -14.07475 11.80287 1.7087 8.83883 l 0.24284,0.08138 v -3.9063 -4.00717 l 0.24283,4.07765 V 9.89021 L 93.24918,25.815 93.492,18.85281 93.73485,13.3882 v 0.81253 l 0.24283,1.33597 0.48567,-5.56099 0.24284,11.64616 v 4.09003 l 0.24283,-10.73053 0.24284,19.8026 0.24284,-6.48638 0.24284,-20.49814 v 3.90444 l 0.24282,1.13911 0.24285,1.50022 0.48567,1.74318 v 3.07649 -7.53174 l 0.24284,-3.64047 v 7.81711 L 97.13455,4.38698 97.3774,23.42766 v -8.75974 l 0.24282,0.8759 0.24285,-0.02475 v -6.3004 l 0.24283,6.60149 v 5.84332 L 98.34874,10.81862 V 21.4269 19.78682 l 0.48567,-5.65208 0.24283,4.53285 0.24284,5.3495 0.24283,7.04807 V 11.78601 19.52437 L 99.80576,7.7702 v 9.04697 8.51003 l 0.24282,1.3311 0.48568,0.5178 0.72851,-10.20369 0.72852,-0.98652 0.24283,-6.08555 v 7.14443 -5.414 4.30301 -11.05373 l 0.48567,13.55768 v 0.14361 l 0.24284,6.50588 v 1.99327 -16.81532 l 0.48567,-3.8763 V 21.95409 14.4347 l 0.24283,-3.57522 0.48567,10.83025 0.24285,-14.14824 0.24283,2.59732 0.72851,15.24687 0.48567,-14.52057 0.24284,10.7395 0.24284,-3.07464 0.24284,-10.4193 0.48567,10.36156 0.24283,-5.46086 V 9.6495 20.77672 l 0.48567,-0.94939 0.48567,6.08179 v 7.53401 -16.6132 l 0.24285,13.51681 v -5.83583 l 0.24283,-8.62213 V 13.945 l 0.48567,0.67944 v -5.96409 2.45711 l 0.24284,2.86803 V 21.7126 L 110.00488,7.9742 V 3.38135 l 0.24285,15.47709 0.24282,11.83364 V 8.57187 9.70724 l 0.24285,3.09752 0.24283,1.83916 0.24284,2.45221 v 2.44023 l 0.48567,-6.72336 v -2.00225 5.81669 l 0.24283,15.31136 V 13.86551 l 0.24284,3.48973 0.48568,5.06267 0.24282,-8.72338 v 8.99372 l 0.72852,-7.48751 v 0.89803 l 0.24283,1.62317 v 11.2532 l 0.24284,-2.14961 V 13.46205 l 0.24283,-1.27859 0.48569,6.1399 v 3.62397 7.68061 -9.19468 l 0.48567,1.99626 v 0.67755 l 0.24283,-2.3371 v -6.07881 l 0.24284,4.59998 0.24283,-12.09049 0.72851,17.56225 0.24283,-6.10018 V 8.54863 23.16443 L 118.01848,9.83284 V 5.54147 l 0.24284,6.86171 0.24283,2.69182 0.48567,6.20104 0.97136,4.36975 0.48567,-13.00239 v 2.76717 l 0.24283,-6.58461 v 5.90108 l 0.72852,1.01876 v 7.66373 -7.22579 l 0.24283,3.9333 0.24284,-8.4129 v 4.64459 14.51307 l 0.24283,-17.36724 v 1.44282 l 0.48567,2.92205 v 9.06047 l 0.48567,-11.60456 v 2.11626 l 0.48567,-2.30074 0.24285,-7.36114 0.24284,13.63229 0.24283,-12.7144 v 8.19544 l 0.72852,-4.97081 v 5.30488 l 0.24282,5.20741 0.48568,0.25722 0.24284,-14.41972 0.24283,15.86067 0.72851,-19.57762 v 13.9994 l 0.24283,0.33408 0.48567,-10.46692 v -2.1185 l 0.72852,20.40326 0.24285,-9.50928 V 14.43394 11.4714 23.41266 l 0.24282,-6.50549 0.24284,14.7864 V 14.98364 l 0.24284,-2.57446 V 23.8821 l 0.24284,-4.98917 V 13.42268 9.10655 l 0.24283,8.65328 0.24284,5.11964 v -2.08963 l 0.24283,0.55869 v -7.11033 0.8343 l 0.48567,8.33828 0.24284,-9.13095 v -1.83464 3.97377 4.27377 -1.45858 l 0.24283,-13.23298 v 9.40204 8.61576 l 0.72852,-4.33826 0.24283,13.45647 V 21.04893 l 0.24284,5.74434 0.24283,-21.27728 v 12.20258 l 0.72851,1.25049 V 26.02086 0 l 0.24285,21.7321 v -4.90817 l 0.24282,-8.15982 0.24285,6.97494 0.24283,0.80541 v -1.24111 l 0.24284,4.23478 0.24283,-9.16919 v 12.90863 9.34355 -20.49364 l 0.48567,2.62994 v 2.90891 l 0.48567,-3.37048 v 15.23787 l 0.24285,-5.1433 0.24282,-1.85341 v -6.26176 l 0.24285,-9.97873 v 1.29474 l 0.24283,7.582 0.24284,0.38283 v -3.94005 l 0.24283,21.02006 0.72851,-15.59744 0.24285,0.27821 v 8.15605 l 0.48567,-2.30972 V 9.3203 29.14763 20.21577 l 0.24283,4.42413 0.24284,-7.26328 0.24283,-4.70497 v -2.25986 7.34164 l 0.24284,7.51039 0.24284,-9.69863 v 5.26927 -6.48712 -7.64087 l 0.24284,3.58983 0.7285,11.58915 V 36.1938 l 0.24284,-20.8337 v 4.31087 l 0.24283,8.61313 v -4.47323 l 0.24284,-3.27375 0.48567,-3.46348 0.48568,-4.30299 V 23.6665 16.34473 l 0.24284,-0.6753 0.7285,3.60558 0.24284,-1.95689 v 12.79989 l 0.48568,-22.54426 v 3.43159 l 0.24282,15.19925 0.24285,-10.09196 0.24283,1.70494 0.24284,-4.82496 v 8.2573 12.27197 -13.77893 l 0.24283,-0.43007 v -0.71504 l 0.24284,8.93672 V 13.4482 l 0.24283,8.49014 0.24284,-9.843 V 9.2003 l 0.24283,7.37279 0.24285,2.94826 0.24284,0.70005 v -4.88269 l 0.24283,1.47547 0.24284,-0.81366 v -3.46799 l 0.24283,3.70122 V 21.9402 11.03235 23.35979 l 0.48567,-1.87629 v -8.04394 l 0.24285,5.49312 v -0.93027 l 0.24282,0.54482 V 6.92393 l 0.48568,9.30718 0.24284,-7.76422 0.48567,10.08221 v -2.96928 5.44775 L 150.55856,7.9247 v 14.4767 l 0.24283,-7.01094 0.24285,3.08477 0.24284,-5.25277 L 151.5299,3.183 v 11.74214 l 0.24285,4.13089 0.7285,-1.40721 v -6.77246 1.63818 l 0.24285,3.91792 0.24282,6.94646 0.48568,-1.86166 V 8.41103 20.99345 l 0.24284,-7.23181 v 2.53322 l 0.24283,1.56619 V 25.73701 9.84673 l 0.24284,10.31956 V 16.05414 15.3646 14.05186 l 0.24283,-0.55043 V 11.46165 24.74 l 0.24284,3.55684 v 3.12827 l 0.24283,-9.55315 V 8.78859 l 0.48567,-6.22052 0.24285,15.07402 v -5.63036 2.13425 l 0.24284,-5.30789 v 7.33528 l 0.7285,1.79118 v 2.16985 l 0.48567,-7.08704 0.24285,-2.96028 0.48567,0.98464 0.24283,6.00904 0.24284,-0.20436 v 3.30751 l 0.24283,-11.06834 0.97134,5.68396 0.48567,2.09526 v 4.57559 -9.53515 -6.15154 l 0.24285,16.87493 0.24284,-11.86063 v 8.14781 l 0.24283,10.19882 0.48567,-11.47067 0.24284,5.76984 0.24283,-8.24456 0.48567,8.94347 0.24285,-3.26025 0.24283,-4.07128 0.24284,-3.99778 0.24283,8.63713 0.48567,-12.93452 v 12.61318 -10.7995 l 0.24285,-2.78219 0.7285,3.54111 0.24284,4.18375 v 9.02295 l 0.24284,6.84746 V 8.4309 21.8071 l 0.24283,-12.2116 v 3.39298 l 0.48567,4.70009 0.24285,6.24415 V 8.81146 l 0.24283,7.71474 0.24284,-2.29022 V 8.1358 l 0.24283,8.18567 v 2.37874 l 0.24284,-4.72147 0.24283,9.17745 v -9.92061 l 0.24284,3.0739 v 7.61087 2.30261 l 0.24283,-5.56886 0.24285,1.13011 v 6.37241 L 168.28561,11.84 v 10.92924 l 0.24285,-1.18674 v -6.21829 l 0.24283,2.48897 v -6.22241 l 0.24284,13.20747 v -5.76008 l 0.72852,-2.43947 0.24282,-2.66255 v 6.39224 1.60707 l 0.48568,2.09338 V 10.49052 4.65695 l 0.24284,10.39717 0.24283,-0.87289 V 32.3749 15.4887 l 0.48567,1.22161 v -3.18713 l 0.48567,-7.71811 v 3.56657 l 0.48567,0.62806 0.24285,17.1779 v -11.82238 6.69822 -1.2591 l 0.24282,-4.429 V 7.6266 l 0.48568,17.42462 0.24284,-6.45076 0.24283,3.51336 0.24285,-14.53408 0.24284,7.46164 0.48567,4.22014 0.97134,-4.60185 0.24283,-0.09487 0.24284,6.03756 0.24283,-8.24268 0.72852,-6.08104 V 19.35751 L 177.5134,14.1996 V 25.55067 14.22136 l 0.48567,6.06866 v -3.95617 l 0.24284,7.69487 v -7.2554 l 0.24283,-5.98958 0.24284,8.22993 V 17.04439 L 178.97043,4.51746 V 12.6874 17.38861 3.9854 l 0.24283,0.72892 0.72851,24.82177 0.24283,-16.43212 0.24284,10.42043 V 11.83888 l 0.24283,6.00267 0.24285,-1.71167 0.48567,-5.01579 0.24283,-1.66631 v 6.65661 0.5778 -8.41928 l 0.24284,3.62509 0.7285,0.48442 v -0.73227 8.12906 l 0.48567,2.90366 0.24285,3.07278 0.48567,-4.90069 0.24284,-1.88117 0.24283,-1.39896 0.24284,17.08979 V 21.02568 l 0.48568,-9.45078 v 14.25623 l 0.24282,-1.63782 V 12.72339 l 0.48568,-1.76642 v 11.01248 l 0.24284,-2.04614 v -6.81746 l 0.24283,3.39861 0.24284,-0.54482 0.24283,-7.36076 0.24284,2.57818 0.24283,5.0098 0.24285,0.3026 v -3.65433 l 0.24282,-1.7023 v 8.58839 l 0.48569,-6.30452 0.24283,-2.07501 V 8.80734 l 0.24284,1.15186 0.48568,8.83513 v -0.28235 l 0.97134,2.42973 0.48567,-14.85055 v 16.10403 l 0.24283,-10.86101 v 1.69705 l 0.97134,5.86995 0.24285,1.90929"
                         style="fill:none;stroke:#ff0000;stroke-width:0.3985;stroke-linecap:butt;stroke-linejoin:miter;stroke-miterlimit:10;stroke-dasharray:none;stroke-opacity:1"
                         id="path1344" />
                    </g>
                  </g>
                </g>
                <g
                   id="g1346">
                  <g
                     id="g1348"
                     transform="translate(79.206,-28.429)">
                    <g
                       id="g1350">
                      <g
                         id="g1352"
                         transform="translate(-296.095,-566.829)">
                        <text
                           transform="matrix(1,0,0,-1,296.095,566.829)"
                           style="font-variant:normal;font-size:11.9552px;font-family:NimbusRomNo9L;-inkscape-font-specification:NimbusRomNo9L-Regu;writing-mode:lr-tb;fill:#000000;fill-opacity:1;fill-rule:nonzero;stroke:none"
                           id="text1356"><tspan
                             x="0 7.3046274 13.282228 19.259827 24.567936 30.545536"
                             y="0"
                             sodipodi:role="line"
                             id="tspan1354">Epoche</tspan></text>
                        <g
                           id="g1358"
                           transform="translate(296.095,566.829)" />
                      </g>
                    </g>
                    <g
                       id="g1360"
                       transform="translate(-79.206,28.429)" />
                  </g>
                </g>
                <g
                   id="g1362">
                  <g
                     id="g1364"
                     transform="rotate(90,-49.4335,15.9905)">
                    <g
                       id="g1366">
                      <g
                         id="g1368"
                         transform="translate(-183.446,-660.682)">
                        <text
                           transform="matrix(1,0,0,-1,183.446,660.682)"
                           style="font-variant:normal;font-size:11.9552px;font-family:NimbusRomNo9L;-inkscape-font-specification:NimbusRomNo9L-Regu;writing-mode:lr-tb;fill:#000000;fill-opacity:1;fill-rule:nonzero;stroke:none"
                           id="text1372"><tspan
                             x="0 6.6470914 11.9552 17.9328 21.256346 26.564455"
                             y="0"
                             sodipodi:role="line"
                             id="tspan1370">Fehler</tspan></text>
                        <g
                           id="g1374"
                           transform="translate(183.446,660.682)" />
                      </g>
                    </g>
                    <g
                       id="g1376"
                       transform="translate(33.443,-65.424)" />
                  </g>
                </g>
                <g
                   id="g1378">
                  <g
                     id="g1380">
                    <path
                       d="m 134.09773,126.2141 h 56.08589 v 31.75291 h -56.08589 z"
                       style="fill:#ffffff;fill-opacity:1;fill-rule:nonzero;stroke:#000000;stroke-width:0.3985;stroke-linecap:butt;stroke-linejoin:miter;stroke-miterlimit:10;stroke-dasharray:none;stroke-opacity:1"
                       id="path1382" />
                  </g>
                  <g
                     id="g1384"
                     transform="translate(137.084,135.147)">
                    <g
                       id="g1386"
                       transform="translate(0.2,13.884)">
                      <g
                         id="g1388">
                        <g
                           id="g1390">
                          <path
                             d="m 0,0 h 8.50412 8.50414"
                             style="fill:none;stroke:#0000ff;stroke-width:0.3985;stroke-linecap:butt;stroke-linejoin:miter;stroke-miterlimit:10;stroke-dasharray:none;stroke-opacity:1"
                             id="path1392" />
                        </g>
                      </g>
                      <g
                         id="g1394"
                         transform="translate(33.557)">
                        <g
                           id="g1396">
                          <g
                             id="g1398">
                            <g
                               id="g1400"
                               transform="translate(-14.358,-3.156)">
                              <g
                                 id="g1402">
                                <g
                                   id="g1404"
                                   transform="translate(-373.372,-741.133)">
                                <text
                                   transform="matrix(1,0,0,-1,373.372,741.133)"
                                   style="font-variant:normal;font-size:11.9552px;font-family:NimbusRomNo9L;-inkscape-font-specification:NimbusRomNo9L-Regu;writing-mode:lr-tb;fill:#000000;fill-opacity:1;fill-rule:nonzero;stroke:none"
                                   id="text1408"><tspan
                                   x="0 6.4677634 11.775872 16.426445 22.738791"
                                   y="0"
                                   sodipodi:role="line"
                                   id="tspan1406">Test5</tspan></text>
                                <g
                                   id="g1410"
                                   transform="translate(373.372,741.133)" />
                                </g>
                              </g>
                              <g
                                 id="g1412"
                                 transform="translate(14.358,3.156)" />
                            </g>
                          </g>
                        </g>
                        <g
                           id="g1414"
                           transform="translate(-33.557,-13.884)">
                          <g
                             id="g1416">
                            <g
                               id="g1418">
                              <path
                                 d="m 0,0 h 8.50412 8.50414"
                                 style="fill:none;stroke:#ff0000;stroke-width:0.3985;stroke-linecap:butt;stroke-linejoin:miter;stroke-miterlimit:10;stroke-dasharray:none;stroke-opacity:1"
                                 id="path1420" />
                            </g>
                          </g>
                          <g
                             id="g1422"
                             transform="translate(33.557)">
                            <g
                               id="g1424">
                              <g
                                 id="g1426">
                                <g
                                   id="g1428"
                                   transform="translate(-14.358,-3.156)">
                                <g
                                   id="g1430">
                                <g
                                   id="g1432"
                                   transform="translate(-373.372,-727.249)">
                                <text
                                   transform="matrix(1,0,0,-1,373.372,727.249)"
                                   style="font-variant:normal;font-size:11.9552px;font-family:NimbusRomNo9L;-inkscape-font-specification:NimbusRomNo9L-Regu;writing-mode:lr-tb;fill:#000000;fill-opacity:1;fill-rule:nonzero;stroke:none"
                                   id="text1436"><tspan
                                   x="0 6.4677634 11.775872 16.426445 22.738791"
                                   y="0"
                                   sodipodi:role="line"
                                   id="tspan1434">Test9</tspan></text>
                                <g
                                   id="g1438"
                                   transform="translate(373.372,727.249)" />
                                </g>
                                </g>
                                <g
                                   id="g1440"
                                   transform="translate(14.358,3.156)" />
                                </g>
                              </g>
                            </g>
                            <g
                               id="g1442"
                               transform="translate(-33.757)" />
                          </g>
                        </g>
                      </g>
                    </g>
                    <g
                       id="g1444"
                       transform="translate(-137.084,-135.147)" />
                  </g>
                </g>
              </g>
            </g>
            <g
               id="g1446"
               transform="translate(-45.533,-35.002)" />
          </g>
          <g
             id="g1448"
             transform="translate(45.533,35.002)" />
        </g>
        <g
           id="g1450" />
        <g
           id="g1452" />
      </g>
    </g>
  </g>
</svg>
