<?xml version="1.0" encoding="UTF-8" standalone="no"?>
<svg
   xmlns:dc="http://purl.org/dc/elements/1.1/"
   xmlns:cc="http://creativecommons.org/ns#"
   xmlns:rdf="http://www.w3.org/1999/02/22-rdf-syntax-ns#"
   xmlns:svg="http://www.w3.org/2000/svg"
   xmlns="http://www.w3.org/2000/svg"
   xmlns:sodipodi="http://sodipodi.sourceforge.net/DTD/sodipodi-0.dtd"
   xmlns:inkscape="http://www.inkscape.org/namespaces/inkscape"
   sodipodi:docname="simpleNN.svg"
   inkscape:version="1.0 (4035a4fb49, 2020-05-01)"
   id="svg730"
   version="1.1"
   viewBox="0 0 225.62276 135.80809"
   height="135.80809mm"
   width="225.62276mm">
  <defs
     id="defs724" />
  <sodipodi:namedview
     inkscape:window-maximized="0"
     inkscape:window-y="0"
     inkscape:window-x="2024"
     inkscape:window-height="1041"
     inkscape:window-width="1375"
     showgrid="false"
     inkscape:document-rotation="0"
     inkscape:current-layer="layer1"
     inkscape:document-units="mm"
     inkscape:cy="120.782"
     inkscape:cx="652.08799"
     inkscape:zoom="0.35"
     inkscape:pageshadow="2"
     inkscape:pageopacity="0.0"
     borderopacity="1.0"
     bordercolor="#666666"
     pagecolor="#ffffff"
     id="base" />
  <metadata
     id="metadata727">
    <rdf:RDF>
      <cc:Work
         rdf:about="">
        <dc:format>image/svg+xml</dc:format>
        <dc:type
           rdf:resource="http://purl.org/dc/dcmitype/StillImage" />
        <dc:title></dc:title>
      </cc:Work>
    </rdf:RDF>
  </metadata>
  <g
     transform="translate(66.698282,-116.20976)"
     id="layer1"
     inkscape:groupmode="layer"
     inkscape:label="Layer 1">
    <g
       transform="matrix(0.7496043,0,0,-0.7496043,-40.222511,191.84045)"
       id="g30">
      <g
         id="g32">
        <g
           id="g34">
          <path
             d="m 16.29933,42.52022 c 0,9.00198 -7.29735,16.29933 -16.29933,16.29933 -9.00198,0 -16.29933,-7.29735 -16.29933,-16.29933 0,-9.002 7.29735,-16.29933 16.29933,-16.29933 9.00198,0 16.29933,7.29733 16.29933,16.29933 z"
             style="fill:none;stroke:#000000;stroke-width:0.3985;stroke-linecap:butt;stroke-linejoin:miter;stroke-miterlimit:10;stroke-dasharray:none;stroke-opacity:1"
             id="path36" />
          <g
             id="g38"
             transform="translate(0,42.52)">
            <g
               id="g40" />
            <g
               id="g42"
               transform="translate(0,-42.52)" />
          </g>
        </g>
        <g
           id="g44">
          <path
             d="M 16.29933,0 C 16.29933,9.00198 9.00198,16.29933 0,16.29933 -9.00198,16.29933 -16.29933,9.00198 -16.29933,0 c 0,-9.00198 7.29735,-16.29933 16.29933,-16.29933 9.00198,0 16.29933,7.29735 16.29933,16.29933 z"
             style="fill:none;stroke:#000000;stroke-width:0.3985;stroke-linecap:butt;stroke-linejoin:miter;stroke-miterlimit:10;stroke-dasharray:none;stroke-opacity:1"
             id="path46" />
          <g
             id="g48">
            <g
               id="g50" />
          </g>
        </g>
        <g
           id="g52">
          <path
             d="m 16.29933,-42.52022 c 0,9.002 -7.29735,16.29933 -16.29933,16.29933 -9.00198,0 -16.29933,-7.29733 -16.29933,-16.29933 0,-9.00198 7.29735,-16.29933 16.29933,-16.29933 9.00198,0 16.29933,7.29735 16.29933,16.29933 z"
             style="fill:none;stroke:#000000;stroke-width:0.3985;stroke-linecap:butt;stroke-linejoin:miter;stroke-miterlimit:10;stroke-dasharray:none;stroke-opacity:1"
             id="path54" />
          <g
             id="g56"
             transform="translate(0,-42.52)">
            <g
               id="g58" />
            <g
               id="g60"
               transform="translate(0,42.52)" />
          </g>
        </g>
        <g
           id="g62">
          <path
             d="m 129.6866,63.78032 c 0,9.00198 -7.29735,16.29933 -16.29933,16.29933 -9.002,0 -16.29933,-7.29735 -16.29933,-16.29933 0,-9.00198 7.29733,-16.29933 16.29933,-16.29933 9.00198,0 16.29933,7.29735 16.29933,16.29933 z"
             style="fill:none;stroke:#000000;stroke-width:0.3985;stroke-linecap:butt;stroke-linejoin:miter;stroke-miterlimit:10;stroke-dasharray:none;stroke-opacity:1"
             id="path64" />
          <g
             id="g66"
             transform="translate(113.385,63.779)">
            <g
               id="g68" />
            <g
               id="g70"
               transform="translate(-113.385,-63.779)" />
          </g>
        </g>
        <g
           id="g72">
          <path
             d="m 129.6866,21.2601 c 0,9.00198 -7.29735,16.29933 -16.29933,16.29933 -9.002,0 -16.29933,-7.29735 -16.29933,-16.29933 0,-9.002 7.29733,-16.29933 16.29933,-16.29933 9.00198,0 16.29933,7.29733 16.29933,16.29933 z"
             style="fill:none;stroke:#000000;stroke-width:0.3985;stroke-linecap:butt;stroke-linejoin:miter;stroke-miterlimit:10;stroke-dasharray:none;stroke-opacity:1"
             id="path74" />
          <g
             id="g76"
             transform="translate(113.385,21.26)">
            <g
               id="g78" />
            <g
               id="g80"
               transform="translate(-113.385,-21.26)" />
          </g>
        </g>
        <g
           id="g82">
          <path
             d="m 129.6866,-21.2601 c 0,9.002 -7.29735,16.29933 -16.29933,16.29933 -9.002,0 -16.29933,-7.29733 -16.29933,-16.29933 0,-9.00198 7.29733,-16.29933 16.29933,-16.29933 9.00198,0 16.29933,7.29735 16.29933,16.29933 z"
             style="fill:none;stroke:#000000;stroke-width:0.3985;stroke-linecap:butt;stroke-linejoin:miter;stroke-miterlimit:10;stroke-dasharray:none;stroke-opacity:1"
             id="path84" />
          <g
             id="g86"
             transform="translate(113.385,-21.26)">
            <g
               id="g88" />
            <g
               id="g90"
               transform="translate(-113.385,21.26)" />
          </g>
        </g>
        <g
           id="g92">
          <path
             d="m 129.6866,-63.78032 c 0,9.00198 -7.29735,16.29933 -16.29933,16.29933 -9.002,0 -16.29933,-7.29735 -16.29933,-16.29933 0,-9.00198 7.29733,-16.29933 16.29933,-16.29933 9.00198,0 16.29933,7.29735 16.29933,16.29933 z"
             style="fill:none;stroke:#000000;stroke-width:0.3985;stroke-linecap:butt;stroke-linejoin:miter;stroke-miterlimit:10;stroke-dasharray:none;stroke-opacity:1"
             id="path94" />
          <g
             id="g96"
             transform="translate(113.385,-63.78)">
            <g
               id="g98" />
            <g
               id="g100"
               transform="translate(-113.385,63.78)" />
          </g>
        </g>
        <g
           id="g102">
          <path
             d="m 243.07387,21.2601 c 0,9.00198 -7.29735,16.29933 -16.29933,16.29933 -9.002,0 -16.29934,-7.29735 -16.29934,-16.29933 0,-9.002 7.29734,-16.29933 16.29934,-16.29933 9.00198,0 16.29933,7.29733 16.29933,16.29933 z"
             style="fill:none;stroke:#000000;stroke-width:0.3985;stroke-linecap:butt;stroke-linejoin:miter;stroke-miterlimit:10;stroke-dasharray:none;stroke-opacity:1"
             id="path104" />
          <g
             id="g106"
             transform="translate(226.771,21.26)">
            <g
               id="g108" />
            <g
               id="g110"
               transform="translate(-226.771,-21.26)" />
          </g>
        </g>
        <g
           id="g112">
          <path
             d="m 243.07387,-21.2601 c 0,9.002 -7.29735,16.29933 -16.29933,16.29933 -9.002,0 -16.29934,-7.29733 -16.29934,-16.29933 0,-9.00198 7.29734,-16.29933 16.29934,-16.29933 9.00198,0 16.29933,7.29735 16.29933,16.29933 z"
             style="fill:none;stroke:#000000;stroke-width:0.3985;stroke-linecap:butt;stroke-linejoin:miter;stroke-miterlimit:10;stroke-dasharray:none;stroke-opacity:1"
             id="path114" />
          <g
             id="g116"
             transform="translate(226.771,-21.26)">
            <g
               id="g118" />
            <g
               id="g120"
               transform="translate(-226.771,21.26)" />
          </g>
        </g>
        <path
           d="M 16.2151,45.56032 95.21385,60.37306"
           style="fill:none;stroke:#000000;stroke-width:0.3985;stroke-linecap:butt;stroke-linejoin:miter;stroke-miterlimit:10;stroke-dasharray:none;stroke-opacity:1"
           id="path122" />
        <g
           id="g124"
           transform="matrix(0.98282,0.18427,-0.18427,0.98282,95.21385,60.37305)">
          <g
             id="g126">
            <path
               d="M 1.99252,0 -1.19551,1.59401 0,0 -1.19551,-1.59401"
               style="fill:#000000;fill-opacity:1;fill-rule:nonzero;stroke:none"
               id="path128" />
          </g>
        </g>
        <path
           d="M 16.2151,39.4801 95.21385,24.66734"
           style="fill:none;stroke:#000000;stroke-width:0.3985;stroke-linecap:butt;stroke-linejoin:miter;stroke-miterlimit:10;stroke-dasharray:none;stroke-opacity:1"
           id="path130" />
        <g
           id="g132"
           transform="matrix(0.98282,-0.18427,0.18427,0.98282,95.21385,24.66736)">
          <g
             id="g134">
            <path
               d="M 1.99252,0 -1.19551,1.59401 0,0 -1.19551,-1.59401"
               style="fill:#000000;fill-opacity:1;fill-rule:nonzero;stroke:none"
               id="path136" />
          </g>
        </g>
        <path
           d="M 14.3791,34.43205 97.2716,-12.19513"
           style="fill:none;stroke:#000000;stroke-width:0.3985;stroke-linecap:butt;stroke-linejoin:miter;stroke-miterlimit:10;stroke-dasharray:none;stroke-opacity:1"
           id="path138" />
        <g
           id="g140"
           transform="matrix(0.87154,-0.49023,0.49023,0.87154,97.2716,-12.19513)">
          <g
             id="g142">
            <path
               d="M 1.99252,0 -1.19551,1.59401 0,0 -1.19551,-1.59401"
               style="fill:#000000;fill-opacity:1;fill-rule:nonzero;stroke:none"
               id="path144" />
          </g>
        </g>
        <path
           d="M 12.03583,31.2366 99.89787,-51.134"
           style="fill:none;stroke:#000000;stroke-width:0.3985;stroke-linecap:butt;stroke-linejoin:miter;stroke-miterlimit:10;stroke-dasharray:none;stroke-opacity:1"
           id="path146" />
        <g
           id="g148"
           transform="matrix(0.7295,-0.68391,0.68391,0.7295,99.89786,-51.13399)">
          <g
             id="g150">
            <path
               d="M 1.99252,0 -1.19551,1.59401 0,0 -1.19551,-1.59401"
               style="fill:#000000;fill-opacity:1;fill-rule:nonzero;stroke:none"
               id="path152" />
          </g>
        </g>
        <path
           d="M 14.3791,8.08817 97.2716,54.71535"
           style="fill:none;stroke:#000000;stroke-width:0.3985;stroke-linecap:butt;stroke-linejoin:miter;stroke-miterlimit:10;stroke-dasharray:none;stroke-opacity:1"
           id="path154" />
        <g
           id="g156"
           transform="matrix(0.87154,0.49023,-0.49023,0.87154,97.2716,54.71535)">
          <g
             id="g158">
            <path
               d="M 1.99252,0 -1.19551,1.59401 0,0 -1.19551,-1.59401"
               style="fill:#000000;fill-opacity:1;fill-rule:nonzero;stroke:none"
               id="path160" />
          </g>
        </g>
        <path
           d="M 16.2151,3.0401 95.21385,17.85284"
           style="fill:none;stroke:#000000;stroke-width:0.3985;stroke-linecap:butt;stroke-linejoin:miter;stroke-miterlimit:10;stroke-dasharray:none;stroke-opacity:1"
           id="path162" />
        <g
           id="g164"
           transform="matrix(0.98282,0.18427,-0.18427,0.98282,95.21385,17.85283)">
          <g
             id="g166">
            <path
               d="M 1.99252,0 -1.19551,1.59401 0,0 -1.19551,-1.59401"
               style="fill:#000000;fill-opacity:1;fill-rule:nonzero;stroke:none"
               id="path168" />
          </g>
        </g>
        <path
           d="M 16.2151,-3.0401 95.21385,-17.85284"
           style="fill:none;stroke:#000000;stroke-width:0.3985;stroke-linecap:butt;stroke-linejoin:miter;stroke-miterlimit:10;stroke-dasharray:none;stroke-opacity:1"
           id="path170" />
        <g
           id="g172"
           transform="matrix(0.98282,-0.18427,0.18427,0.98282,95.21385,-17.85283)">
          <g
             id="g174">
            <path
               d="M 1.99252,0 -1.19551,1.59401 0,0 -1.19551,-1.59401"
               style="fill:#000000;fill-opacity:1;fill-rule:nonzero;stroke:none"
               id="path176" />
          </g>
        </g>
        <path
           d="M 14.3791,-8.08817 97.2716,-54.71535"
           style="fill:none;stroke:#000000;stroke-width:0.3985;stroke-linecap:butt;stroke-linejoin:miter;stroke-miterlimit:10;stroke-dasharray:none;stroke-opacity:1"
           id="path178" />
        <g
           id="g180"
           transform="matrix(0.87154,-0.49023,0.49023,0.87154,97.2716,-54.71535)">
          <g
             id="g182">
            <path
               d="M 1.99252,0 -1.19551,1.59401 0,0 -1.19551,-1.59401"
               style="fill:#000000;fill-opacity:1;fill-rule:nonzero;stroke:none"
               id="path184" />
          </g>
        </g>
        <path
           d="M 12.03583,-31.2366 99.89787,51.134"
           style="fill:none;stroke:#000000;stroke-width:0.3985;stroke-linecap:butt;stroke-linejoin:miter;stroke-miterlimit:10;stroke-dasharray:none;stroke-opacity:1"
           id="path186" />
        <g
           id="g188"
           transform="matrix(0.7295,0.68391,-0.68391,0.7295,99.89786,51.13399)">
          <g
             id="g190">
            <path
               d="M 1.99252,0 -1.19551,1.59401 0,0 -1.19551,-1.59401"
               style="fill:#000000;fill-opacity:1;fill-rule:nonzero;stroke:none"
               id="path192" />
          </g>
        </g>
        <path
           d="M 14.3791,-34.43205 97.2716,12.19513"
           style="fill:none;stroke:#000000;stroke-width:0.3985;stroke-linecap:butt;stroke-linejoin:miter;stroke-miterlimit:10;stroke-dasharray:none;stroke-opacity:1"
           id="path194" />
        <g
           id="g196"
           transform="matrix(0.87154,0.49023,-0.49023,0.87154,97.2716,12.19513)">
          <g
             id="g198">
            <path
               d="M 1.99252,0 -1.19551,1.59401 0,0 -1.19551,-1.59401"
               style="fill:#000000;fill-opacity:1;fill-rule:nonzero;stroke:none"
               id="path200" />
          </g>
        </g>
        <path
           d="m 16.2151,-39.4801 78.99875,14.81276"
           style="fill:none;stroke:#000000;stroke-width:0.3985;stroke-linecap:butt;stroke-linejoin:miter;stroke-miterlimit:10;stroke-dasharray:none;stroke-opacity:1"
           id="path202" />
        <g
           id="g204"
           transform="matrix(0.98282,0.18427,-0.18427,0.98282,95.21385,-24.66736)">
          <g
             id="g206">
            <path
               d="M 1.99252,0 -1.19551,1.59401 0,0 -1.19551,-1.59401"
               style="fill:#000000;fill-opacity:1;fill-rule:nonzero;stroke:none"
               id="path208" />
          </g>
        </g>
        <path
           d="M 16.2151,-45.56032 95.21385,-60.37306"
           style="fill:none;stroke:#000000;stroke-width:0.3985;stroke-linecap:butt;stroke-linejoin:miter;stroke-miterlimit:10;stroke-dasharray:none;stroke-opacity:1"
           id="path210" />
        <g
           id="g212"
           transform="matrix(0.98282,-0.18427,0.18427,0.98282,95.21385,-60.37305)">
          <g
             id="g214">
            <path
               d="M 1.99252,0 -1.19551,1.59401 0,0 -1.19551,-1.59401"
               style="fill:#000000;fill-opacity:1;fill-rule:nonzero;stroke:none"
               id="path216" />
          </g>
        </g>
        <path
           d="M 128.83453,57.9876 209.4617,27.75241"
           style="fill:none;stroke:#000000;stroke-width:0.3985;stroke-linecap:butt;stroke-linejoin:miter;stroke-miterlimit:10;stroke-dasharray:none;stroke-opacity:1"
           id="path218" />
        <g
           id="g220"
           transform="matrix(0.93628,-0.3511,0.3511,0.93628,209.46169,27.75241)">
          <g
             id="g222">
            <path
               d="M 1.99252,0 -1.19551,1.59401 0,0 -1.19551,-1.59401"
               style="fill:#000000;fill-opacity:1;fill-rule:nonzero;stroke:none"
               id="path224" />
          </g>
        </g>
        <path
           d="m 126.58566,53.88132 85.39652,-64.04694"
           style="fill:none;stroke:#000000;stroke-width:0.3985;stroke-linecap:butt;stroke-linejoin:miter;stroke-miterlimit:10;stroke-dasharray:none;stroke-opacity:1"
           id="path226" />
        <g
           id="g228"
           transform="matrix(0.79997,-0.59999,0.59999,0.79997,211.98218,-10.1656)">
          <g
             id="g230">
            <path
               d="M 1.99252,0 -1.19551,1.59401 0,0 -1.19551,-1.59401"
               style="fill:#000000;fill-opacity:1;fill-rule:nonzero;stroke:none"
               id="path232" />
          </g>
        </g>
        <path
           d="m 129.88585,21.2601 h 78.39757"
           style="fill:none;stroke:#000000;stroke-width:0.3985;stroke-linecap:butt;stroke-linejoin:miter;stroke-miterlimit:10;stroke-dasharray:none;stroke-opacity:1"
           id="path234" />
        <g
           id="g236"
           transform="translate(208.28342,21.2601)">
          <g
             id="g238">
            <path
               d="M 1.99252,0 -1.19551,1.59401 0,0 -1.19551,-1.59401"
               style="fill:#000000;fill-opacity:1;fill-rule:nonzero;stroke:none"
               id="path240" />
          </g>
        </g>
        <path
           d="M 128.83453,15.46736 209.4617,-14.76779"
           style="fill:none;stroke:#000000;stroke-width:0.3985;stroke-linecap:butt;stroke-linejoin:miter;stroke-miterlimit:10;stroke-dasharray:none;stroke-opacity:1"
           id="path242" />
        <g
           id="g244"
           transform="matrix(0.93628,-0.3511,0.3511,0.93628,209.46169,-14.76779)">
          <g
             id="g246">
            <path
               d="M 1.99252,0 -1.19551,1.59401 0,0 -1.19551,-1.59401"
               style="fill:#000000;fill-opacity:1;fill-rule:nonzero;stroke:none"
               id="path248" />
          </g>
        </g>
        <path
           d="M 128.83453,-15.46736 209.4617,14.76779"
           style="fill:none;stroke:#000000;stroke-width:0.3985;stroke-linecap:butt;stroke-linejoin:miter;stroke-miterlimit:10;stroke-dasharray:none;stroke-opacity:1"
           id="path250" />
        <g
           id="g252"
           transform="matrix(0.93628,0.3511,-0.3511,0.93628,209.46169,14.76779)">
          <g
             id="g254">
            <path
               d="M 1.99252,0 -1.19551,1.59401 0,0 -1.19551,-1.59401"
               style="fill:#000000;fill-opacity:1;fill-rule:nonzero;stroke:none"
               id="path256" />
          </g>
        </g>
        <path
           d="m 129.88585,-21.2601 h 78.39757"
           style="fill:none;stroke:#000000;stroke-width:0.3985;stroke-linecap:butt;stroke-linejoin:miter;stroke-miterlimit:10;stroke-dasharray:none;stroke-opacity:1"
           id="path258" />
        <g
           id="g260"
           transform="translate(208.28342,-21.2601)">
          <g
             id="g262">
            <path
               d="M 1.99252,0 -1.19551,1.59401 0,0 -1.19551,-1.59401"
               style="fill:#000000;fill-opacity:1;fill-rule:nonzero;stroke:none"
               id="path264" />
          </g>
        </g>
        <path
           d="m 126.58566,-53.88132 85.39652,64.04694"
           style="fill:none;stroke:#000000;stroke-width:0.3985;stroke-linecap:butt;stroke-linejoin:miter;stroke-miterlimit:10;stroke-dasharray:none;stroke-opacity:1"
           id="path266" />
        <g
           id="g268"
           transform="matrix(0.79997,0.59999,-0.59999,0.79997,211.98218,10.1656)">
          <g
             id="g270">
            <path
               d="M 1.99252,0 -1.19551,1.59401 0,0 -1.19551,-1.59401"
               style="fill:#000000;fill-opacity:1;fill-rule:nonzero;stroke:none"
               id="path272" />
          </g>
        </g>
        <path
           d="m 128.83453,-57.9876 80.62717,30.23519"
           style="fill:none;stroke:#000000;stroke-width:0.3985;stroke-linecap:butt;stroke-linejoin:miter;stroke-miterlimit:10;stroke-dasharray:none;stroke-opacity:1"
           id="path274" />
        <g
           id="g276"
           transform="matrix(0.93628,0.3511,-0.3511,0.93628,209.46169,-27.75241)">
          <g
             id="g278">
            <path
               d="M 1.99252,0 -1.19551,1.59401 0,0 -1.19551,-1.59401"
               style="fill:#000000;fill-opacity:1;fill-rule:nonzero;stroke:none"
               id="path280" />
          </g>
        </g>
        <g
           id="g282">
          <g
             id="g284"
             transform="translate(-36.493,91.811)">
            <g
               id="g286">
              <g
                 id="g288"
                 transform="translate(-147.096,-744.76)">
                <text
                   transform="matrix(1,0,0,-1,147.096,744.76)"
                   style="font-variant:normal;font-size:11.9552px;font-family:NimbusRomNo9L;-inkscape-font-specification:NimbusRomNo9L-Regu;writing-mode:lr-tb;fill:#000000;fill-opacity:1;fill-rule:nonzero;stroke:none"
                   id="text292"><tspan
                     x="0 7.3046274 10.628173 16.605772 22.523598 27.831705 33.809307 39.117413 43.767986 49.076096 55.053696 58.377243 63.685349 69.662949"
                     y="0"
                     sodipodi:role="line"
                     id="tspan290">Eingabeschicht</tspan></text>
                <g
                   id="g294"
                   transform="translate(147.096,744.76)" />
              </g>
            </g>
            <g
               id="g296"
               transform="translate(36.493,-91.811)" />
          </g>
        </g>
        <g
           id="g298">
          <g
             id="g300"
             transform="translate(69.062,89.343)">
            <g
               id="g302">
              <g
                 id="g304"
                 transform="translate(-252.651,-742.292)">
                <text
                   transform="matrix(1,0,0,-1,252.651,742.292)"
                   style="font-variant:normal;font-size:11.9552px;font-family:NimbusRomNo9L;-inkscape-font-specification:NimbusRomNo9L-Regu;writing-mode:lr-tb;fill:#000000;fill-opacity:1;fill-rule:nonzero;stroke:none"
                   id="text308"><tspan
                     x="0 7.3046274 12.612736 16.593817 21.24439 24.567936 29.876045 35.184155 41.161755 44.485298 52.782207 59.429298 64.737411 70.715012 74.038551 79.346664 85.324265"
                     y="0"
                     sodipodi:role="line"
                     id="tspan306">VersteckteSchicht</tspan></text>
                <g
                   id="g310"
                   transform="translate(252.651,742.292)" />
              </g>
            </g>
            <g
               id="g312"
               transform="translate(-69.062,-89.343)" />
          </g>
        </g>
        <g
           id="g314">
          <g
             id="g316"
             transform="translate(188.951,91.811)">
            <g
               id="g318">
              <g
                 id="g320"
                 transform="translate(-372.54,-744.76)">
                <text
                   transform="matrix(1,0,0,-1,372.54,744.76)"
                   style="font-variant:normal;font-size:11.9552px;font-family:NimbusRomNo9L;-inkscape-font-specification:NimbusRomNo9L-Regu;writing-mode:lr-tb;fill:#000000;fill-opacity:1;fill-rule:nonzero;stroke:none"
                   id="text324"><tspan
                     x="0 8.6316547 14.609255 19.259827 25.17765 30.48576 36.46336 41.771469 46.422043 51.730152 57.707752 61.031296 66.339401 72.317001"
                     y="0"
                     sodipodi:role="line"
                     id="tspan322">Ausgabeschicht</tspan></text>
                <g
                   id="g326"
                   transform="translate(372.54,744.76)" />
              </g>
            </g>
            <g
               id="g328"
               transform="translate(-188.951,-91.811)" />
          </g>
        </g>
      </g>
    </g>
  </g>
</svg>
